<?xml version="1.0" encoding="UTF-8" standalone="no"?>
<!DOCTYPE svg PUBLIC "-//W3C//DTD SVG 1.1//EN"
 "http://www.w3.org/Graphics/SVG/1.1/DTD/svg11.dtd">
<!-- Generated by graphviz version 2.40.1 (20161225.0304)
 -->
<!-- Title: controllers_diagram Pages: 1 -->
<svg width="326pt" height="215pt"
 viewBox="0.00 0.00 326.00 215.00" xmlns="http://www.w3.org/2000/svg" xmlns:xlink="http://www.w3.org/1999/xlink">
<g id="graph0" class="graph" transform="scale(1 1) rotate(0) translate(4 211)">
<title>controllers_diagram</title>
<polygon fill="transparent" stroke="transparent" points="-4,4 -4,-211 322,-211 322,4 -4,4"/>
<!-- _diagram_info -->
<g id="node1" class="node">
<title>_diagram_info</title>
<text text-anchor="start" x="8" y="-63.6" font-family="Times,serif" font-size="13.00" fill="#000000">Controllers diagram</text>
<text text-anchor="start" x="8" y="-49.6" font-family="Times,serif" font-size="13.00" fill="#000000">Date: Mar 14 2020 &#45; 17:27</text>
<text text-anchor="start" x="8" y="-35.6" font-family="Times,serif" font-size="13.00" fill="#000000">Migration version: 20200314232534</text>
<text text-anchor="start" x="8" y="-21.6" font-family="Times,serif" font-size="13.00" fill="#000000">Generated by RailRoady 1.5.3</text>
<text text-anchor="start" x="8" y="-7.6" font-family="Times,serif" font-size="13.00" fill="#000000">http://railroady.prestonlee.com</text>
</g>
<!-- ProjectsController -->
<g id="node2" class="node">
<title>ProjectsController</title>
<path fill="none" stroke="#000000" d="M54,-112.5C54,-112.5 146,-112.5 146,-112.5 152,-112.5 158,-118.5 158,-124.5 158,-124.5 158,-194.5 158,-194.5 158,-200.5 152,-206.5 146,-206.5 146,-206.5 54,-206.5 54,-206.5 48,-206.5 42,-200.5 42,-194.5 42,-194.5 42,-124.5 42,-124.5 42,-118.5 48,-112.5 54,-112.5"/>
<text text-anchor="middle" x="100" y="-191.3" font-family="Times,serif" font-size="14.00" fill="#000000">ProjectsController</text>
<polyline fill="none" stroke="#000000" points="42,-183.5 158,-183.5 "/>
<polyline fill="none" stroke="#000000" points="42,-159.5 158,-159.5 "/>
<polyline fill="none" stroke="#000000" points="42,-135.5 158,-135.5 "/>
<text text-anchor="start" x="50" y="-120.3" font-family="Times,serif" font-size="14.00" fill="#000000">_layout</text>
</g>
<!-- ApplicationController -->
<g id="node3" class="node">
<title>ApplicationController</title>
<path fill="none" stroke="#000000" d="M194,-112.5C194,-112.5 306,-112.5 306,-112.5 312,-112.5 318,-118.5 318,-124.5 318,-124.5 318,-194.5 318,-194.5 318,-200.5 312,-206.5 306,-206.5 306,-206.5 194,-206.5 194,-206.5 188,-206.5 182,-200.5 182,-194.5 182,-194.5 182,-124.5 182,-124.5 182,-118.5 188,-112.5 194,-112.5"/>
<text text-anchor="middle" x="250" y="-191.3" font-family="Times,serif" font-size="14.00" fill="#000000">ApplicationController</text>
<polyline fill="none" stroke="#000000" points="182,-183.5 318,-183.5 "/>
<polyline fill="none" stroke="#000000" points="182,-159.5 318,-159.5 "/>
<polyline fill="none" stroke="#000000" points="182,-135.5 318,-135.5 "/>
<text text-anchor="start" x="190" y="-120.3" font-family="Times,serif" font-size="14.00" fill="#000000">_layout</text>
</g>
</g>
</svg>
