<?xml version="1.0" encoding="UTF-8" standalone="no"?>
<!DOCTYPE svg PUBLIC "-//W3C//DTD SVG 1.1//EN"
 "http://www.w3.org/Graphics/SVG/1.1/DTD/svg11.dtd">
<!-- Generated by graphviz version 2.40.1 (20161225.0304)
 -->
<!-- Title: models_diagram Pages: 1 -->
<svg width="1004pt" height="160pt"
 viewBox="0.00 0.00 1003.50 160.00" xmlns="http://www.w3.org/2000/svg" xmlns:xlink="http://www.w3.org/1999/xlink">
<g id="graph0" class="graph" transform="scale(1 1) rotate(0) translate(4 156)">
<title>models_diagram</title>
<polygon fill="transparent" stroke="transparent" points="-4,4 -4,-156 999.5,-156 999.5,4 -4,4"/>
<!-- _diagram_info -->
<g id="node1" class="node">
<title>_diagram_info</title>
<text text-anchor="start" x="8" y="-100.6" font-family="Times,serif" font-size="13.00" fill="#000000">Models diagram</text>
<text text-anchor="start" x="8" y="-86.6" font-family="Times,serif" font-size="13.00" fill="#000000">Date: Mar 14 2020 &#45; 17:26</text>
<text text-anchor="start" x="8" y="-72.6" font-family="Times,serif" font-size="13.00" fill="#000000">Migration version: 20200314232534</text>
<text text-anchor="start" x="8" y="-58.6" font-family="Times,serif" font-size="13.00" fill="#000000">Generated by RailRoady 1.5.3</text>
<text text-anchor="start" x="8" y="-44.6" font-family="Times,serif" font-size="13.00" fill="#000000">http://railroady.prestonlee.com</text>
</g>
<!-- ApplicationRecord -->
<g id="node2" class="node">
<title>ApplicationRecord</title>
<ellipse fill="none" stroke="#000000" cx="309" cy="-76" rx="77.1866" ry="18"/>
<text text-anchor="middle" x="309" y="-72.3" font-family="Times,serif" font-size="14.00" fill="#000000">ApplicationRecord</text>
</g>
<!-- Project -->
<g id="node3" class="node">
<title>Project</title>
<path fill="none" stroke="#000000" d="M416,-15.5C416,-15.5 652,-15.5 652,-15.5 658,-15.5 664,-21.5 664,-27.5 664,-27.5 664,-124.5 664,-124.5 664,-130.5 658,-136.5 652,-136.5 652,-136.5 416,-136.5 416,-136.5 410,-136.5 404,-130.5 404,-124.5 404,-124.5 404,-27.5 404,-27.5 404,-21.5 410,-15.5 416,-15.5"/>
<text text-anchor="middle" x="534" y="-121.3" font-family="Times,serif" font-size="14.00" fill="#000000">Project</text>
<polyline fill="none" stroke="#000000" points="404,-113.5 664,-113.5 "/>
<text text-anchor="start" x="412" y="-98.3" font-family="Times,serif" font-size="14.00" fill="#000000">id :bigint</text>
<text text-anchor="start" x="412" y="-83.3" font-family="Times,serif" font-size="14.00" fill="#000000">name :character varying</text>
<text text-anchor="start" x="412" y="-68.3" font-family="Times,serif" font-size="14.00" fill="#000000">description :text</text>
<text text-anchor="start" x="412" y="-53.3" font-family="Times,serif" font-size="14.00" fill="#000000">status :integer</text>
<text text-anchor="start" x="412" y="-38.3" font-family="Times,serif" font-size="14.00" fill="#000000">created_at :timestamp(6) without time zone</text>
<text text-anchor="start" x="412" y="-23.3" font-family="Times,serif" font-size="14.00" fill="#000000">updated_at :timestamp(6) without time zone</text>
</g>
<!-- User -->
<g id="node4" class="node">
<title>User</title>
<path fill="none" stroke="#000000" d="M694.5,-.5C694.5,-.5 983.5,-.5 983.5,-.5 989.5,-.5 995.5,-6.5 995.5,-12.5 995.5,-12.5 995.5,-139.5 995.5,-139.5 995.5,-145.5 989.5,-151.5 983.5,-151.5 983.5,-151.5 694.5,-151.5 694.5,-151.5 688.5,-151.5 682.5,-145.5 682.5,-139.5 682.5,-139.5 682.5,-12.5 682.5,-12.5 682.5,-6.5 688.5,-.5 694.5,-.5"/>
<text text-anchor="middle" x="839" y="-136.3" font-family="Times,serif" font-size="14.00" fill="#000000">User</text>
<polyline fill="none" stroke="#000000" points="682.5,-128.5 995.5,-128.5 "/>
<text text-anchor="start" x="690.5" y="-113.3" font-family="Times,serif" font-size="14.00" fill="#000000">id :bigint</text>
<text text-anchor="start" x="690.5" y="-98.3" font-family="Times,serif" font-size="14.00" fill="#000000">email :character varying</text>
<text text-anchor="start" x="690.5" y="-83.3" font-family="Times,serif" font-size="14.00" fill="#000000">encrypted_password :character varying</text>
<text text-anchor="start" x="690.5" y="-68.3" font-family="Times,serif" font-size="14.00" fill="#000000">reset_password_token :character varying</text>
<text text-anchor="start" x="690.5" y="-53.3" font-family="Times,serif" font-size="14.00" fill="#000000">reset_password_sent_at :timestamp without time zone</text>
<text text-anchor="start" x="690.5" y="-38.3" font-family="Times,serif" font-size="14.00" fill="#000000">remember_created_at :timestamp without time zone</text>
<text text-anchor="start" x="690.5" y="-23.3" font-family="Times,serif" font-size="14.00" fill="#000000">created_at :timestamp(6) without time zone</text>
<text text-anchor="start" x="690.5" y="-8.3" font-family="Times,serif" font-size="14.00" fill="#000000">updated_at :timestamp(6) without time zone</text>
</g>
</g>
</svg>
